<svg xmlns="http://www.w3.org/2000/svg" xmlns:xlink="http://www.w3.org/1999/xlink" width="2835pt" height="777pt" viewBox="0.00 0.00 2835.00 777.00">
<g id="graph0" class="graph" transform="scale(1 1) rotate(0) translate(4 773)">
<polygon fill="white" stroke="none" points="-4,4 -4,-773 2831.32,-773 2831.32,4 -4,4"/>
<g id="clust2" class="cluster">
<title>cluster_0</title>
<polygon fill="lightgrey" stroke="lightgrey" points="822.54,-563 822.54,-640 929.97,-640 929.97,-563 822.54,-563"/>
<text xml:space="preserve" text-anchor="middle" x="876.26" y="-623.4" font-family="Times,serif" font-size="14.00">CreatingSets</text>
</g>
<g id="clust4" class="cluster">
<title>cluster_1</title>
<polygon fill="lightgrey" stroke="lightgrey" points="1184.54,-478 1184.54,-555 1291.97,-555 1291.97,-478 1184.54,-478"/>
<text xml:space="preserve" text-anchor="middle" x="1238.26" y="-538.4" font-family="Times,serif" font-size="14.00">CreatingSets</text>
</g>
<g id="clust6" class="cluster">
<title>cluster_2</title>
<polygon fill="lightgrey" stroke="lightgrey" points="1184.54,-291 1184.54,-368 1291.97,-368 1291.97,-291 1184.54,-291"/>
<text xml:space="preserve" text-anchor="middle" x="1238.26" y="-351.4" font-family="Times,serif" font-size="14.00">CreatingSets</text>
</g>
<g id="clust8" class="cluster">
<title>cluster_3</title>
<polygon fill="lightgrey" stroke="lightgrey" points="388.45,-406 388.45,-483 540.19,-483 540.19,-406 388.45,-406"/>
<text xml:space="preserve" text-anchor="middle" x="464.32" y="-466.4" font-family="Times,serif" font-size="14.00">ReadFromStorage</text>
</g>
<g id="clust10" class="cluster">
<title>cluster_4</title>
<polygon fill="lightgrey" stroke="lightgrey" points="8,-612 8,-689 159.75,-689 159.75,-612 8,-612"/>
<text xml:space="preserve" text-anchor="middle" x="83.87" y="-672.4" font-family="Times,serif" font-size="14.00">ReadFromStorage</text>
</g>
<g id="clust12" class="cluster">
<title>cluster_5</title>
<polygon fill="lightgrey" stroke="lightgrey" points="388.45,-134 388.45,-211 540.19,-211 540.19,-134 388.45,-134"/>
<text xml:space="preserve" text-anchor="middle" x="464.32" y="-194.4" font-family="Times,serif" font-size="14.00">ReadFromStorage</text>
</g>
<g id="clust14" class="cluster">
<title>cluster_6</title>
<polygon fill="lightgrey" stroke="lightgrey" points="2446.45,-275 2446.45,-424 2607.52,-424 2607.52,-275 2446.45,-275"/>
<text xml:space="preserve" text-anchor="middle" x="2526.99" y="-407.4" font-family="Times,serif" font-size="14.00">Aggregating</text>
</g>
<g id="clust16" class="cluster">
<title>cluster_7</title>
<polygon fill="lightgrey" stroke="lightgrey" points="588.97,-612 588.97,-761 751.6,-761 751.6,-612 588.97,-612"/>
<text xml:space="preserve" text-anchor="middle" x="670.29" y="-744.4" font-family="Times,serif" font-size="14.00">CreatingSet</text>
</g>
<g id="clust18" class="cluster">
<title>cluster_8</title>
<polygon fill="lightgrey" stroke="lightgrey" points="789.1,-134 789.1,-211 963.41,-211 963.41,-134 789.1,-134"/>
<text xml:space="preserve" text-anchor="middle" x="876.26" y="-194.4" font-family="Times,serif" font-size="14.00">Expression</text>
</g>
<g id="clust20" class="cluster">
<title>cluster_9</title>
<polygon fill="lightgrey" stroke="lightgrey" points="377.17,-612 377.17,-689 551.47,-689 551.47,-612 377.17,-612"/>
<text xml:space="preserve" text-anchor="middle" x="464.32" y="-672.4" font-family="Times,serif" font-size="14.00">Expression</text>
</g>
<g id="clust22" class="cluster">
<title>cluster_10</title>
<polygon fill="lightgrey" stroke="lightgrey" points="789.1,-406 789.1,-483 963.41,-483 963.41,-406 789.1,-406"/>
<text xml:space="preserve" text-anchor="middle" x="876.26" y="-466.4" font-family="Times,serif" font-size="14.00">Expression</text>
</g>
<g id="clust24" class="cluster">
<title>cluster_11</title>
<polygon fill="lightgrey" stroke="lightgrey" points="1312.97,-8 1312.97,-85 1480.63,-85 1480.63,-8 1312.97,-8"/>
<text xml:space="preserve" text-anchor="middle" x="1396.8" y="-68.4" font-family="Times,serif" font-size="14.00">ReadFromSystemNumbers</text>
</g>
<g id="clust26" class="cluster">
<title>cluster_12</title>
<polygon fill="lightgrey" stroke="lightgrey" points="1312.97,-165 1312.97,-242 1480.63,-242 1480.63,-165 1312.97,-165"/>
<text xml:space="preserve" text-anchor="middle" x="1396.8" y="-225.4" font-family="Times,serif" font-size="14.00">ReadFromSystemNumbers</text>
</g>
<g id="clust28" class="cluster">
<title>cluster_13</title>
<polygon fill="lightgrey" stroke="lightgrey" points="2097.84,-275 2097.84,-352 2251.15,-352 2251.15,-275 2097.84,-275"/>
<text xml:space="preserve" text-anchor="middle" x="2174.5" y="-335.4" font-family="Times,serif" font-size="14.00">Expression</text>
</g>
<g id="clust30" class="cluster">
<title>cluster_14</title>
<polygon fill="lightgrey" stroke="lightgrey" points="2645.02,-347 2645.02,-424 2819.32,-424 2819.32,-347 2645.02,-347"/>
<text xml:space="preserve" text-anchor="middle" x="2732.17" y="-407.4" font-family="Times,serif" font-size="14.00">Expression</text>
</g>
<g id="clust32" class="cluster">
<title>cluster_15</title>
<polygon fill="lightgrey" stroke="lightgrey" points="197.25,-612 197.25,-689 339.67,-689 339.67,-612 197.25,-612"/>
<text xml:space="preserve" text-anchor="middle" x="268.46" y="-672.4" font-family="Times,serif" font-size="14.00">Filter</text>
</g>
<g id="clust34" class="cluster">
<title>cluster_16</title>
<polygon fill="lightgrey" stroke="lightgrey" points="1501.63,-424 1501.63,-501 1654.93,-501 1654.93,-424 1501.63,-424"/>
<text xml:space="preserve" text-anchor="middle" x="1578.28" y="-484.4" font-family="Times,serif" font-size="14.00">Expression</text>
</g>
<g id="clust36" class="cluster">
<title>cluster_17</title>
<polygon fill="lightgrey" stroke="lightgrey" points="799.6,-306 799.6,-383 952.91,-383 952.91,-306 799.6,-306"/>
<text xml:space="preserve" text-anchor="middle" x="876.26" y="-366.4" font-family="Times,serif" font-size="14.00">Expression</text>
</g>
<g id="clust38" class="cluster">
<title>cluster_18</title>
<polygon fill="lightgrey" stroke="lightgrey" points="1501.63,-8 1501.63,-85 1654.93,-85 1654.93,-8 1501.63,-8"/>
<text xml:space="preserve" text-anchor="middle" x="1578.28" y="-68.4" font-family="Times,serif" font-size="14.00">Expression</text>
</g>
<g id="clust40" class="cluster">
<title>cluster_19</title>
<polygon fill="lightgrey" stroke="lightgrey" points="1704.33,-165 1704.33,-314 1857.63,-314 1857.63,-165 1704.33,-165"/>
<text xml:space="preserve" text-anchor="middle" x="1780.98" y="-297.4" font-family="Times,serif" font-size="14.00">Expression</text>
</g>
<g id="clust42" class="cluster">
<title>cluster_20</title>
<polygon fill="lightgrey" stroke="lightgrey" points="1501.63,-291 1501.63,-368 1654.93,-368 1654.93,-291 1501.63,-291"/>
<text xml:space="preserve" text-anchor="middle" x="1578.28" y="-351.4" font-family="Times,serif" font-size="14.00">Expression</text>
</g>
<g id="clust44" class="cluster">
<title>cluster_21</title>
<polygon fill="lightgrey" stroke="lightgrey" points="1704.33,-8 1704.33,-157 1857.63,-157 1857.63,-8 1704.33,-8"/>
<text xml:space="preserve" text-anchor="middle" x="1780.98" y="-140.4" font-family="Times,serif" font-size="14.00">Expression</text>
</g>
<g id="clust46" class="cluster">
<title>cluster_22</title>
<polygon fill="lightgrey" stroke="lightgrey" points="1319.65,-291 1319.65,-368 1472.95,-368 1472.95,-291 1319.65,-291"/>
<text xml:space="preserve" text-anchor="middle" x="1396.3" y="-351.4" font-family="Times,serif" font-size="14.00">Expression</text>
</g>
<g id="clust48" class="cluster">
<title>cluster_23</title>
<polygon fill="lightgrey" stroke="lightgrey" points="1319.65,-442 1319.65,-519 1472.95,-519 1472.95,-442 1319.65,-442"/>
<text xml:space="preserve" text-anchor="middle" x="1396.3" y="-502.4" font-family="Times,serif" font-size="14.00">Expression</text>
</g>
<g id="clust50" class="cluster">
<title>cluster_24</title>
<polygon fill="lightgrey" stroke="lightgrey" points="1501.63,-165 1501.63,-242 1654.93,-242 1654.93,-165 1501.63,-165"/>
<text xml:space="preserve" text-anchor="middle" x="1578.28" y="-225.4" font-family="Times,serif" font-size="14.00">Expression</text>
</g>
<g id="clust52" class="cluster">
<title>cluster_25</title>
<polygon fill="lightgrey" stroke="lightgrey" points="1005.57,-291 1005.57,-368 1158.88,-368 1158.88,-291 1005.57,-291"/>
<text xml:space="preserve" text-anchor="middle" x="1082.23" y="-351.4" font-family="Times,serif" font-size="14.00">Expression</text>
</g>
<g id="clust54" class="cluster">
<title>cluster_26</title>
<polygon fill="lightgrey" stroke="lightgrey" points="593.64,-527 593.64,-604 746.94,-604 746.94,-527 593.64,-527"/>
<text xml:space="preserve" text-anchor="middle" x="670.29" y="-587.4" font-family="Times,serif" font-size="14.00">Expression</text>
</g>
<g id="clust56" class="cluster">
<title>cluster_27</title>
<polygon fill="lightgrey" stroke="lightgrey" points="1000.91,-406 1000.91,-555 1163.54,-555 1163.54,-406 1000.91,-406"/>
<text xml:space="preserve" text-anchor="middle" x="1082.23" y="-538.4" font-family="Times,serif" font-size="14.00">CreatingSet</text>
</g>
<g id="clust58" class="cluster">
<title>cluster_28</title>
<polygon fill="lightgrey" stroke="lightgrey" points="1005.57,-563 1005.57,-640 1158.88,-640 1158.88,-563 1005.57,-563"/>
<text xml:space="preserve" text-anchor="middle" x="1082.23" y="-623.4" font-family="Times,serif" font-size="14.00">Expression</text>
</g>
<g id="clust60" class="cluster">
<title>cluster_29</title>
<polygon fill="lightgrey" stroke="lightgrey" points="1000.91,-134 1000.91,-283 1163.54,-283 1163.54,-134 1000.91,-134"/>
<text xml:space="preserve" text-anchor="middle" x="1082.23" y="-266.4" font-family="Times,serif" font-size="14.00">CreatingSet</text>
</g>
<g id="clust62" class="cluster">
<title>cluster_30</title>
<polygon fill="lightgrey" stroke="lightgrey" points="599.08,-406 599.08,-483 741.5,-483 741.5,-406 599.08,-406"/>
<text xml:space="preserve" text-anchor="middle" x="670.29" y="-466.4" font-family="Times,serif" font-size="14.00">Filter</text>
</g>
<g id="clust64" class="cluster">
<title>cluster_31</title>
<polygon fill="lightgrey" stroke="lightgrey" points="599.08,-134 599.08,-211 741.5,-211 741.5,-134 599.08,-134"/>
<text xml:space="preserve" text-anchor="middle" x="670.29" y="-194.4" font-family="Times,serif" font-size="14.00">Filter</text>
</g>
<g id="clust66" class="cluster">
<title>cluster_32</title>
<polygon fill="lightgrey" stroke="lightgrey" points="2272.15,-275 2272.15,-352 2425.45,-352 2425.45,-275 2272.15,-275"/>
<text xml:space="preserve" text-anchor="middle" x="2348.8" y="-335.4" font-family="Times,serif" font-size="14.00">Expression</text>
</g>
<!-- n19 -->
<g id="node1" class="node">
<title>n19</title>
<polygon fill="none" stroke="black" points="2068.84,-319 1931.53,-319 1931.53,-283 2068.84,-283 2068.84,-319"/>
<text xml:space="preserve" text-anchor="middle" x="2000.19" y="-296.8" font-family="Times,serif" font-size="14.00">JoiningTransform × 2</text>
</g>
<!-- n38 -->
<g id="node19" class="node">
<title>n38</title>
<polygon fill="white" stroke="white" points="2243.15,-319 2105.84,-319 2105.84,-283 2243.15,-283 2243.15,-319"/>
<text xml:space="preserve" text-anchor="middle" x="2174.5" y="-296.8" font-family="Times,serif" font-size="14.00">ExpressionTransform</text>
</g>
<!-- n19&#45;&gt;n38 -->
<g id="edge2" class="edge">
<title>n19-&gt;n38</title>
<path fill="none" stroke="black" d="M2069.29,-301C2077.5,-301 2085.94,-301 2094.3,-301"/>
<polygon fill="black" stroke="black" points="2094.09,-304.5 2104.09,-301 2094.09,-297.5 2094.09,-304.5"/>
</g>
<!-- n24 -->
<g id="node23" class="node">
<title>n24</title>
<polygon fill="white" stroke="white" points="944.91,-350 807.6,-350 807.6,-314 944.91,-314 944.91,-350"/>
<text xml:space="preserve" text-anchor="middle" x="876.26" y="-327.8" font-family="Times,serif" font-size="14.00">ExpressionTransform</text>
</g>
<!-- n19&#45;&gt;n24 -->
<g id="edge1" class="edge">
<title>n19-&gt;n24</title>
<path fill="none" stroke="black" d="M1971.45,-319.29C1947.6,-334.22 1911.81,-354.78 1878.03,-367 1837.11,-381.8 1825.49,-386 1781.98,-386 1081.23,-386 1081.23,-386 1081.23,-386 1029.05,-386 971.79,-369.28 931.25,-354.45"/>
<polygon fill="black" stroke="black" points="932.55,-351.2 921.96,-350.96 930.09,-357.75 932.55,-351.2"/>
</g>
<!-- n1 -->
<g id="node2" class="node">
<title>n1</title>
<polygon fill="none" stroke="black" points="496.42,-571 432.21,-571 432.21,-535 496.42,-535 496.42,-571"/>
<text xml:space="preserve" text-anchor="middle" x="464.32" y="-548.8" font-family="Times,serif" font-size="14.00">Memory</text>
</g>
<!-- n2 -->
<g id="node34" class="node">
<title>n2</title>
<polygon fill="white" stroke="white" points="738.94,-571 601.64,-571 601.64,-535 738.94,-535 738.94,-571"/>
<text xml:space="preserve" text-anchor="middle" x="670.29" y="-548.8" font-family="Times,serif" font-size="14.00">ExpressionTransform</text>
</g>
<!-- n1&#45;&gt;n2 -->
<g id="edge3" class="edge">
<title>n1-&gt;n2</title>
<path fill="none" stroke="black" d="M496.74,-553C521.63,-553 557.52,-553 590.13,-553"/>
<polygon fill="black" stroke="black" points="589.99,-556.5 599.99,-553 589.99,-549.5 589.99,-556.5"/>
</g>
<!-- n18 -->
<g id="node3" class="node">
<title>n18</title>
<polygon fill="none" stroke="black" points="1878.03,-358 1683.93,-358 1683.93,-322 1878.03,-322 1878.03,-358"/>
<text xml:space="preserve" text-anchor="middle" x="1780.98" y="-335.8" font-family="Times,serif" font-size="14.00">SimpleSquashingTransform × 2</text>
</g>
<!-- n18&#45;&gt;n19 -->
<g id="edge4" class="edge">
<title>n18-&gt;n19</title>
<path fill="none" stroke="black" d="M1878.51,-322.67C1892.41,-320.17 1906.57,-317.63 1920.08,-315.2"/>
<polygon fill="black" stroke="black" points="1920.54,-318.68 1929.76,-313.47 1919.3,-311.79 1920.54,-318.68"/>
<text xml:space="preserve" text-anchor="middle" x="1904.78" y="-323.53" font-family="Times,serif" font-size="14.00">× 2</text>
</g>
<!-- n8 -->
<g id="node4" class="node">
<title>n8</title>
<polygon fill="white" stroke="white" points="921.97,-607 830.54,-607 830.54,-571 921.97,-571 921.97,-607"/>
<text xml:space="preserve" text-anchor="middle" x="876.26" y="-584.8" font-family="Times,serif" font-size="14.00">DelayedPorts</text>
</g>
<!-- n9 -->
<g id="node37" class="node">
<title>n9</title>
<polygon fill="white" stroke="white" points="1150.88,-607 1013.57,-607 1013.57,-571 1150.88,-571 1150.88,-607"/>
<text xml:space="preserve" text-anchor="middle" x="1082.23" y="-584.8" font-family="Times,serif" font-size="14.00">ExpressionTransform</text>
</g>
<!-- n8&#45;&gt;n9 -->
<g id="edge5" class="edge">
<title>n8-&gt;n9</title>
<path fill="none" stroke="black" d="M922.27,-589C945.68,-589 974.97,-589 1002.02,-589"/>
<polygon fill="black" stroke="black" points="1001.94,-592.5 1011.94,-589 1001.94,-585.5 1001.94,-592.5"/>
</g>
<!-- n15 -->
<g id="node5" class="node">
<title>n15</title>
<polygon fill="white" stroke="white" points="1283.97,-522 1192.54,-522 1192.54,-486 1283.97,-486 1283.97,-522"/>
<text xml:space="preserve" text-anchor="middle" x="1238.26" y="-499.8" font-family="Times,serif" font-size="14.00">DelayedPorts</text>
</g>
<!-- n16 -->
<g id="node31" class="node">
<title>n16</title>
<polygon fill="white" stroke="white" points="1464.95,-486 1327.65,-486 1327.65,-450 1464.95,-450 1464.95,-486"/>
<text xml:space="preserve" text-anchor="middle" x="1396.3" y="-463.8" font-family="Times,serif" font-size="14.00">ExpressionTransform</text>
</g>
<!-- n15&#45;&gt;n16 -->
<g id="edge6" class="edge">
<title>n15-&gt;n16</title>
<path fill="none" stroke="black" d="M1284.39,-493.59C1294.45,-491.27 1305.4,-488.74 1316.38,-486.21"/>
<polygon fill="black" stroke="black" points="1316.89,-489.68 1325.85,-484.02 1315.32,-482.86 1316.89,-489.68"/>
</g>
<!-- n31 -->
<g id="node6" class="node">
<title>n31</title>
<polygon fill="white" stroke="white" points="1283.97,-335 1192.54,-335 1192.54,-299 1283.97,-299 1283.97,-335"/>
<text xml:space="preserve" text-anchor="middle" x="1238.26" y="-312.8" font-family="Times,serif" font-size="14.00">DelayedPorts</text>
</g>
<!-- n32 -->
<g id="node30" class="node">
<title>n32</title>
<polygon fill="white" stroke="white" points="1464.95,-335 1327.65,-335 1327.65,-299 1464.95,-299 1464.95,-335"/>
<text xml:space="preserve" text-anchor="middle" x="1396.3" y="-312.8" font-family="Times,serif" font-size="14.00">ExpressionTransform</text>
</g>
<!-- n31&#45;&gt;n32 -->
<g id="edge7" class="edge">
<title>n31-&gt;n32</title>
<path fill="none" stroke="black" d="M1284.39,-317C1294.34,-317 1305.17,-317 1316.03,-317"/>
<polygon fill="black" stroke="black" points="1315.81,-320.5 1325.81,-317 1315.81,-313.5 1315.81,-320.5"/>
</g>
<!-- n10 -->
<g id="node7" class="node">
<title>n10</title>
<polygon fill="white" stroke="white" points="532.19,-450 396.45,-450 396.45,-414 532.19,-414 532.19,-450"/>
<text xml:space="preserve" text-anchor="middle" x="464.32" y="-427.8" font-family="Times,serif" font-size="14.00">DictionarySource × 8</text>
</g>
<!-- n11 -->
<g id="node40" class="node">
<title>n11</title>
<polygon fill="white" stroke="white" points="733.5,-450 607.08,-450 607.08,-414 733.5,-414 733.5,-450"/>
<text xml:space="preserve" text-anchor="middle" x="670.29" y="-427.8" font-family="Times,serif" font-size="14.00">FilterTransform × 8</text>
</g>
<!-- n10&#45;&gt;n11 -->
<g id="edge8" class="edge">
<title>n10-&gt;n11</title>
<path fill="none" stroke="black" d="M532.67,-432C552.75,-432 574.85,-432 595.33,-432"/>
<polygon fill="black" stroke="black" points="595.32,-435.5 605.32,-432 595.32,-428.5 595.32,-435.5"/>
<text xml:space="preserve" text-anchor="middle" x="570.22" y="-436.2" font-family="Times,serif" font-size="14.00">× 8</text>
</g>
<!-- n3 -->
<g id="node8" class="node">
<title>n3</title>
<polygon fill="white" stroke="white" points="151.75,-656 16,-656 16,-620 151.75,-620 151.75,-656"/>
<text xml:space="preserve" text-anchor="middle" x="83.87" y="-633.8" font-family="Times,serif" font-size="14.00">DictionarySource × 8</text>
</g>
<!-- n4 -->
<g id="node21" class="node">
<title>n4</title>
<polygon fill="white" stroke="white" points="331.67,-656 205.25,-656 205.25,-620 331.67,-620 331.67,-656"/>
<text xml:space="preserve" text-anchor="middle" x="268.46" y="-633.8" font-family="Times,serif" font-size="14.00">FilterTransform × 8</text>
</g>
<!-- n3&#45;&gt;n4 -->
<g id="edge9" class="edge">
<title>n3-&gt;n4</title>
<path fill="none" stroke="black" d="M152.08,-638C165.59,-638 179.85,-638 193.57,-638"/>
<polygon fill="black" stroke="black" points="193.42,-641.5 203.42,-638 193.42,-634.5 193.42,-641.5"/>
<text xml:space="preserve" text-anchor="middle" x="178.5" y="-642.2" font-family="Times,serif" font-size="14.00">× 8</text>
</g>
<!-- n26 -->
<g id="node9" class="node">
<title>n26</title>
<polygon fill="white" stroke="white" points="532.19,-178 396.45,-178 396.45,-142 532.19,-142 532.19,-178"/>
<text xml:space="preserve" text-anchor="middle" x="464.32" y="-155.8" font-family="Times,serif" font-size="14.00">DictionarySource × 8</text>
</g>
<!-- n27 -->
<g id="node41" class="node">
<title>n27</title>
<polygon fill="white" stroke="white" points="733.5,-178 607.08,-178 607.08,-142 733.5,-142 733.5,-178"/>
<text xml:space="preserve" text-anchor="middle" x="670.29" y="-155.8" font-family="Times,serif" font-size="14.00">FilterTransform × 8</text>
</g>
<!-- n26&#45;&gt;n27 -->
<g id="edge10" class="edge">
<title>n26-&gt;n27</title>
<path fill="none" stroke="black" d="M532.67,-160C552.75,-160 574.85,-160 595.33,-160"/>
<polygon fill="black" stroke="black" points="595.32,-163.5 605.32,-160 595.32,-156.5 595.32,-163.5"/>
<text xml:space="preserve" text-anchor="middle" x="570.22" y="-164.2" font-family="Times,serif" font-size="14.00">× 8</text>
</g>
<!-- n40 -->
<g id="node10" class="node">
<title>n40</title>
<polygon fill="white" stroke="white" points="2599.52,-319 2454.45,-319 2454.45,-283 2599.52,-283 2599.52,-319"/>
<text xml:space="preserve" text-anchor="middle" x="2526.99" y="-296.8" font-family="Times,serif" font-size="14.00">AggregatingTransform</text>
</g>
<!-- n41 -->
<g id="node11" class="node">
<title>n41</title>
<polygon fill="white" stroke="white" points="2553.99,-391 2499.99,-391 2499.99,-355 2553.99,-355 2553.99,-391"/>
<text xml:space="preserve" text-anchor="middle" x="2526.99" y="-368.8" font-family="Times,serif" font-size="14.00">Resize</text>
</g>
<!-- n40&#45;&gt;n41 -->
<g id="edge11" class="edge">
<title>n40-&gt;n41</title>
<path fill="none" stroke="black" d="M2526.99,-319.28C2526.99,-327.27 2526.99,-335.26 2526.99,-343.24"/>
<polygon fill="black" stroke="black" points="2523.49,-343.02 2526.99,-353.02 2530.49,-343.02 2523.49,-343.02"/>
</g>
<!-- n42 -->
<g id="node20" class="node">
<title>n42</title>
<polygon fill="white" stroke="white" points="2811.32,-391 2653.02,-391 2653.02,-355 2811.32,-355 2811.32,-391"/>
<text xml:space="preserve" text-anchor="middle" x="2732.17" y="-368.8" font-family="Times,serif" font-size="14.00">ExpressionTransform × 8</text>
</g>
<!-- n41&#45;&gt;n42 -->
<g id="edge12" class="edge">
<title>n41-&gt;n42</title>
<path fill="none" stroke="black" d="M2554.13,-373C2576.38,-373 2609.67,-373 2641.41,-373"/>
<polygon fill="black" stroke="black" points="2641.04,-376.5 2651.04,-373 2641.04,-369.5 2641.04,-376.5"/>
<text xml:space="preserve" text-anchor="middle" x="2626.27" y="-377.2" font-family="Times,serif" font-size="14.00">× 8</text>
</g>
<!-- n7 -->
<g id="node12" class="node">
<title>n7</title>
<polygon fill="white" stroke="white" points="743.6,-728 596.97,-728 596.97,-692 743.6,-692 743.6,-728"/>
<text xml:space="preserve" text-anchor="middle" x="670.29" y="-705.8" font-family="Times,serif" font-size="14.00">CreatingSetsTransform</text>
</g>
<!-- n7&#45;&gt;n8 -->
<g id="edge13" class="edge">
<title>n7-&gt;n8</title>
<path fill="none" stroke="black" d="M704.67,-691.69C719.17,-683.64 736.31,-673.98 751.6,-665 780.25,-648.18 812.19,-628.53 836.43,-613.42"/>
<polygon fill="black" stroke="black" points="838.07,-616.52 844.69,-608.26 834.36,-610.59 838.07,-616.52"/>
</g>
<!-- n6 -->
<g id="node13" class="node">
<title>n6</title>
<polygon fill="white" stroke="white" points="697.29,-656 643.29,-656 643.29,-620 697.29,-620 697.29,-656"/>
<text xml:space="preserve" text-anchor="middle" x="670.29" y="-633.8" font-family="Times,serif" font-size="14.00">Resize</text>
</g>
<!-- n6&#45;&gt;n7 -->
<g id="edge14" class="edge">
<title>n6-&gt;n7</title>
<path fill="none" stroke="black" d="M670.29,-656.28C670.29,-664.27 670.29,-672.26 670.29,-680.24"/>
<polygon fill="black" stroke="black" points="666.79,-680.02 670.29,-690.02 673.79,-680.02 666.79,-680.02"/>
</g>
<!-- n28 -->
<g id="node14" class="node">
<title>n28</title>
<polygon fill="white" stroke="white" points="955.41,-178 797.1,-178 797.1,-142 955.41,-142 955.41,-178"/>
<text xml:space="preserve" text-anchor="middle" x="876.26" y="-155.8" font-family="Times,serif" font-size="14.00">ExpressionTransform × 8</text>
</g>
<!-- n29 -->
<g id="node39" class="node">
<title>n29</title>
<polygon fill="white" stroke="white" points="1109.23,-178 1055.23,-178 1055.23,-142 1109.23,-142 1109.23,-178"/>
<text xml:space="preserve" text-anchor="middle" x="1082.23" y="-155.8" font-family="Times,serif" font-size="14.00">Resize</text>
</g>
<!-- n28&#45;&gt;n29 -->
<g id="edge15" class="edge">
<title>n28-&gt;n29</title>
<path fill="none" stroke="black" d="M955.82,-160C985.91,-160 1018.88,-160 1043.46,-160"/>
<polygon fill="black" stroke="black" points="1043.29,-163.5 1053.29,-160 1043.29,-156.5 1043.29,-163.5"/>
<text xml:space="preserve" text-anchor="middle" x="982.16" y="-164.2" font-family="Times,serif" font-size="14.00">× 8</text>
</g>
<!-- n5 -->
<g id="node15" class="node">
<title>n5</title>
<polygon fill="white" stroke="white" points="543.47,-656 385.17,-656 385.17,-620 543.47,-620 543.47,-656"/>
<text xml:space="preserve" text-anchor="middle" x="464.32" y="-633.8" font-family="Times,serif" font-size="14.00">ExpressionTransform × 8</text>
</g>
<!-- n5&#45;&gt;n6 -->
<g id="edge16" class="edge">
<title>n5-&gt;n6</title>
<path fill="none" stroke="black" d="M543.89,-638C573.98,-638 606.94,-638 631.52,-638"/>
<polygon fill="black" stroke="black" points="631.35,-641.5 641.35,-638 631.35,-634.5 631.35,-641.5"/>
<text xml:space="preserve" text-anchor="middle" x="570.22" y="-642.2" font-family="Times,serif" font-size="14.00">× 8</text>
</g>
<!-- n12 -->
<g id="node16" class="node">
<title>n12</title>
<polygon fill="white" stroke="white" points="955.41,-450 797.1,-450 797.1,-414 955.41,-414 955.41,-450"/>
<text xml:space="preserve" text-anchor="middle" x="876.26" y="-427.8" font-family="Times,serif" font-size="14.00">ExpressionTransform × 8</text>
</g>
<!-- n13 -->
<g id="node36" class="node">
<title>n13</title>
<polygon fill="white" stroke="white" points="1109.23,-450 1055.23,-450 1055.23,-414 1109.23,-414 1109.23,-450"/>
<text xml:space="preserve" text-anchor="middle" x="1082.23" y="-427.8" font-family="Times,serif" font-size="14.00">Resize</text>
</g>
<!-- n12&#45;&gt;n13 -->
<g id="edge17" class="edge">
<title>n12-&gt;n13</title>
<path fill="none" stroke="black" d="M955.82,-432C985.91,-432 1018.88,-432 1043.46,-432"/>
<polygon fill="black" stroke="black" points="1043.29,-435.5 1053.29,-432 1043.29,-428.5 1043.29,-435.5"/>
<text xml:space="preserve" text-anchor="middle" x="982.16" y="-436.2" font-family="Times,serif" font-size="14.00">× 8</text>
</g>
<!-- n34 -->
<g id="node17" class="node">
<title>n34</title>
<polygon fill="white" stroke="white" points="1447.84,-52 1344.75,-52 1344.75,-16 1447.84,-16 1447.84,-52"/>
<text xml:space="preserve" text-anchor="middle" x="1396.3" y="-29.8" font-family="Times,serif" font-size="14.00">NumbersRange</text>
</g>
<!-- n35 -->
<g id="node24" class="node">
<title>n35</title>
<polygon fill="white" stroke="white" points="1646.93,-52 1509.63,-52 1509.63,-16 1646.93,-16 1646.93,-52"/>
<text xml:space="preserve" text-anchor="middle" x="1578.28" y="-29.8" font-family="Times,serif" font-size="14.00">ExpressionTransform</text>
</g>
<!-- n34&#45;&gt;n35 -->
<g id="edge18" class="edge">
<title>n34-&gt;n35</title>
<path fill="none" stroke="black" d="M1447.91,-34C1463.52,-34 1481.1,-34 1498.14,-34"/>
<polygon fill="black" stroke="black" points="1497.73,-37.5 1507.73,-34 1497.73,-30.5 1497.73,-37.5"/>
</g>
<!-- n20 -->
<g id="node18" class="node">
<title>n20</title>
<polygon fill="white" stroke="white" points="1447.84,-209 1344.75,-209 1344.75,-173 1447.84,-173 1447.84,-209"/>
<text xml:space="preserve" text-anchor="middle" x="1396.3" y="-186.8" font-family="Times,serif" font-size="14.00">NumbersRange</text>
</g>
<!-- n21 -->
<g id="node32" class="node">
<title>n21</title>
<polygon fill="white" stroke="white" points="1646.93,-209 1509.63,-209 1509.63,-173 1646.93,-173 1646.93,-209"/>
<text xml:space="preserve" text-anchor="middle" x="1578.28" y="-186.8" font-family="Times,serif" font-size="14.00">ExpressionTransform</text>
</g>
<!-- n20&#45;&gt;n21 -->
<g id="edge19" class="edge">
<title>n20-&gt;n21</title>
<path fill="none" stroke="black" d="M1447.91,-191C1463.52,-191 1481.1,-191 1498.14,-191"/>
<polygon fill="black" stroke="black" points="1497.73,-194.5 1507.73,-191 1497.73,-187.5 1497.73,-194.5"/>
</g>
<!-- n39 -->
<g id="node42" class="node">
<title>n39</title>
<polygon fill="white" stroke="white" points="2417.45,-319 2280.15,-319 2280.15,-283 2417.45,-283 2417.45,-319"/>
<text xml:space="preserve" text-anchor="middle" x="2348.8" y="-296.8" font-family="Times,serif" font-size="14.00">ExpressionTransform</text>
</g>
<!-- n38&#45;&gt;n39 -->
<g id="edge20" class="edge">
<title>n38-&gt;n39</title>
<path fill="none" stroke="black" d="M2243.59,-301C2251.81,-301 2260.25,-301 2268.6,-301"/>
<polygon fill="black" stroke="black" points="2268.4,-304.5 2278.4,-301 2268.4,-297.5 2268.4,-304.5"/>
</g>
<!-- n4&#45;&gt;n5 -->
<g id="edge21" class="edge">
<title>n4-&gt;n5</title>
<path fill="none" stroke="black" d="M332.13,-638C345.4,-638 359.65,-638 373.69,-638"/>
<polygon fill="black" stroke="black" points="373.38,-641.5 383.38,-638 373.38,-634.5 373.38,-641.5"/>
<text xml:space="preserve" text-anchor="middle" x="358.42" y="-642.2" font-family="Times,serif" font-size="14.00">× 8</text>
</g>
<!-- n17 -->
<g id="node22" class="node">
<title>n17</title>
<polygon fill="white" stroke="white" points="1646.93,-468 1509.63,-468 1509.63,-432 1646.93,-432 1646.93,-468"/>
<text xml:space="preserve" text-anchor="middle" x="1578.28" y="-445.8" font-family="Times,serif" font-size="14.00">ExpressionTransform</text>
</g>
<!-- n17&#45;&gt;n18 -->
<g id="edge22" class="edge">
<title>n17-&gt;n18</title>
<path fill="none" stroke="black" d="M1612.87,-431.59C1646.73,-413.03 1699.16,-384.29 1736.25,-363.97"/>
<polygon fill="black" stroke="black" points="1737.86,-367.07 1744.95,-359.2 1734.5,-360.94 1737.86,-367.07"/>
</g>
<!-- n25 -->
<g id="node33" class="node">
<title>n25</title>
<polygon fill="white" stroke="white" points="1150.88,-335 1013.57,-335 1013.57,-299 1150.88,-299 1150.88,-335"/>
<text xml:space="preserve" text-anchor="middle" x="1082.23" y="-312.8" font-family="Times,serif" font-size="14.00">ExpressionTransform</text>
</g>
<!-- n24&#45;&gt;n25 -->
<g id="edge23" class="edge">
<title>n24-&gt;n25</title>
<path fill="none" stroke="black" d="M945.18,-327.01C963.31,-325.67 983.08,-324.22 1001.77,-322.84"/>
<polygon fill="black" stroke="black" points="1002.03,-326.33 1011.75,-322.11 1001.52,-319.35 1002.03,-326.33"/>
</g>
<!-- n36 -->
<g id="node28" class="node">
<title>n36</title>
<polygon fill="white" stroke="white" points="1849.63,-52 1712.33,-52 1712.33,-16 1849.63,-16 1849.63,-52"/>
<text xml:space="preserve" text-anchor="middle" x="1780.98" y="-29.8" font-family="Times,serif" font-size="14.00">ExpressionTransform</text>
</g>
<!-- n35&#45;&gt;n36 -->
<g id="edge24" class="edge">
<title>n35-&gt;n36</title>
<path fill="none" stroke="black" d="M1647.23,-34C1664.39,-34 1682.97,-34 1700.64,-34"/>
<polygon fill="black" stroke="black" points="1700.59,-37.5 1710.59,-34 1700.59,-30.5 1700.59,-37.5"/>
</g>
<!-- n22 -->
<g id="node25" class="node">
<title>n22</title>
<polygon fill="white" stroke="white" points="1849.63,-209 1712.33,-209 1712.33,-173 1849.63,-173 1849.63,-209"/>
<text xml:space="preserve" text-anchor="middle" x="1780.98" y="-186.8" font-family="Times,serif" font-size="14.00">ExpressionTransform</text>
</g>
<!-- n23 -->
<g id="node26" class="node">
<title>n23</title>
<polygon fill="white" stroke="white" points="1847.32,-281 1714.63,-281 1714.63,-245 1847.32,-245 1847.32,-281"/>
<text xml:space="preserve" text-anchor="middle" x="1780.98" y="-258.8" font-family="Times,serif" font-size="14.00">FillingRightJoinSide</text>
</g>
<!-- n22&#45;&gt;n23 -->
<g id="edge25" class="edge">
<title>n22-&gt;n23</title>
<path fill="none" stroke="black" d="M1780.98,-209.28C1780.98,-217.27 1780.98,-225.26 1780.98,-233.24"/>
<polygon fill="black" stroke="black" points="1777.48,-233.02 1780.98,-243.02 1784.48,-233.02 1777.48,-233.02"/>
</g>
<!-- n23&#45;&gt;n19 -->
<g id="edge26" class="edge">
<title>n23-&gt;n19</title>
<path fill="none" stroke="black" d="M1847.74,-274.5C1870.59,-278.5 1896.45,-283.03 1920.26,-287.19"/>
<polygon fill="black" stroke="black" points="1919.45,-290.6 1929.9,-288.88 1920.66,-283.71 1919.45,-290.6"/>
</g>
<!-- n33 -->
<g id="node27" class="node">
<title>n33</title>
<polygon fill="white" stroke="white" points="1646.93,-335 1509.63,-335 1509.63,-299 1646.93,-299 1646.93,-335"/>
<text xml:space="preserve" text-anchor="middle" x="1578.28" y="-312.8" font-family="Times,serif" font-size="14.00">ExpressionTransform</text>
</g>
<!-- n33&#45;&gt;n18 -->
<g id="edge27" class="edge">
<title>n33-&gt;n18</title>
<path fill="none" stroke="black" d="M1647.23,-324.79C1655.37,-325.72 1663.83,-326.69 1672.37,-327.67"/>
<polygon fill="black" stroke="black" points="1671.77,-331.12 1682.1,-328.78 1672.56,-324.17 1671.77,-331.12"/>
</g>
<!-- n37 -->
<g id="node29" class="node">
<title>n37</title>
<polygon fill="white" stroke="white" points="1847.32,-124 1714.63,-124 1714.63,-88 1847.32,-88 1847.32,-124"/>
<text xml:space="preserve" text-anchor="middle" x="1780.98" y="-101.8" font-family="Times,serif" font-size="14.00">FillingRightJoinSide</text>
</g>
<!-- n36&#45;&gt;n37 -->
<g id="edge28" class="edge">
<title>n36-&gt;n37</title>
<path fill="none" stroke="black" d="M1780.98,-52.28C1780.98,-60.27 1780.98,-68.26 1780.98,-76.24"/>
<polygon fill="black" stroke="black" points="1777.48,-76.02 1780.98,-86.02 1784.48,-76.02 1777.48,-76.02"/>
</g>
<!-- n37&#45;&gt;n19 -->
<g id="edge29" class="edge">
<title>n37-&gt;n19</title>
<path fill="none" stroke="black" d="M1820.83,-124.4C1839.12,-134 1860.67,-146.71 1878.03,-161 1919.23,-194.92 1957.95,-243.73 1980.08,-273.85"/>
<polygon fill="black" stroke="black" points="1977.07,-275.66 1985.77,-281.7 1982.74,-271.55 1977.07,-275.66"/>
</g>
<!-- n32&#45;&gt;n33 -->
<g id="edge30" class="edge">
<title>n32-&gt;n33</title>
<path fill="none" stroke="black" d="M1465.34,-317C1475.98,-317 1487.05,-317 1497.92,-317"/>
<polygon fill="black" stroke="black" points="1497.63,-320.5 1507.63,-317 1497.63,-313.5 1497.63,-320.5"/>
</g>
<!-- n16&#45;&gt;n17 -->
<g id="edge31" class="edge">
<title>n16-&gt;n17</title>
<path fill="none" stroke="black" d="M1465.34,-461.19C1475.98,-460.13 1487.05,-459.02 1497.92,-457.94"/>
<polygon fill="black" stroke="black" points="1498.03,-461.44 1507.63,-456.97 1497.33,-454.48 1498.03,-461.44"/>
</g>
<!-- n21&#45;&gt;n22 -->
<g id="edge32" class="edge">
<title>n21-&gt;n22</title>
<path fill="none" stroke="black" d="M1647.23,-191C1664.39,-191 1682.97,-191 1700.64,-191"/>
<polygon fill="black" stroke="black" points="1700.59,-194.5 1710.59,-191 1700.59,-187.5 1700.59,-194.5"/>
</g>
<!-- n25&#45;&gt;n31 -->
<g id="edge33" class="edge">
<title>n25-&gt;n31</title>
<path fill="none" stroke="black" d="M1151.23,-317C1161.09,-317 1171.14,-317 1180.74,-317"/>
<polygon fill="black" stroke="black" points="1180.66,-320.5 1190.66,-317 1180.66,-313.5 1180.66,-320.5"/>
</g>
<!-- n2&#45;&gt;n8 -->
<g id="edge34" class="edge">
<title>n2-&gt;n8</title>
<path fill="none" stroke="black" d="M739.21,-564.99C765.13,-569.56 794.38,-574.73 819.1,-579.09"/>
<polygon fill="black" stroke="black" points="818.16,-582.48 828.61,-580.77 819.37,-575.58 818.16,-582.48"/>
</g>
<!-- n14 -->
<g id="node35" class="node">
<title>n14</title>
<polygon fill="white" stroke="white" points="1155.54,-522 1008.91,-522 1008.91,-486 1155.54,-486 1155.54,-522"/>
<text xml:space="preserve" text-anchor="middle" x="1082.23" y="-499.8" font-family="Times,serif" font-size="14.00">CreatingSetsTransform</text>
</g>
<!-- n14&#45;&gt;n15 -->
<g id="edge35" class="edge">
<title>n14-&gt;n15</title>
<path fill="none" stroke="black" d="M1155.73,-504C1164.22,-504 1172.78,-504 1180.99,-504"/>
<polygon fill="black" stroke="black" points="1180.83,-507.5 1190.83,-504 1180.83,-500.5 1180.83,-507.5"/>
</g>
<!-- n13&#45;&gt;n14 -->
<g id="edge36" class="edge">
<title>n13-&gt;n14</title>
<path fill="none" stroke="black" d="M1082.23,-450.28C1082.23,-458.27 1082.23,-466.26 1082.23,-474.24"/>
<polygon fill="black" stroke="black" points="1078.73,-474.02 1082.23,-484.02 1085.73,-474.02 1078.73,-474.02"/>
</g>
<!-- n9&#45;&gt;n15 -->
<g id="edge37" class="edge">
<title>n9-&gt;n15</title>
<path fill="none" stroke="black" d="M1139.01,-570.52C1147.41,-567.06 1155.83,-563.2 1163.54,-559 1178.77,-550.7 1194.35,-539.54 1207.24,-529.44"/>
<polygon fill="black" stroke="black" points="1209.31,-532.26 1214.92,-523.28 1204.93,-526.8 1209.31,-532.26"/>
</g>
<!-- n30 -->
<g id="node38" class="node">
<title>n30</title>
<polygon fill="white" stroke="white" points="1155.54,-250 1008.91,-250 1008.91,-214 1155.54,-214 1155.54,-250"/>
<text xml:space="preserve" text-anchor="middle" x="1082.23" y="-227.8" font-family="Times,serif" font-size="14.00">CreatingSetsTransform</text>
</g>
<!-- n30&#45;&gt;n31 -->
<g id="edge38" class="edge">
<title>n30-&gt;n31</title>
<path fill="none" stroke="black" d="M1116.65,-250.44C1139.36,-262.97 1169.6,-279.67 1194.12,-293.2"/>
<polygon fill="black" stroke="black" points="1192.13,-296.09 1202.57,-297.86 1195.51,-289.97 1192.13,-296.09"/>
</g>
<!-- n29&#45;&gt;n30 -->
<g id="edge39" class="edge">
<title>n29-&gt;n30</title>
<path fill="none" stroke="black" d="M1082.23,-178.28C1082.23,-186.27 1082.23,-194.26 1082.23,-202.24"/>
<polygon fill="black" stroke="black" points="1078.73,-202.02 1082.23,-212.02 1085.73,-202.02 1078.73,-202.02"/>
</g>
<!-- n11&#45;&gt;n12 -->
<g id="edge40" class="edge">
<title>n11-&gt;n12</title>
<path fill="none" stroke="black" d="M733.87,-432C750.2,-432 768.12,-432 785.56,-432"/>
<polygon fill="black" stroke="black" points="785.42,-435.5 795.42,-432 785.42,-428.5 785.42,-435.5"/>
<text xml:space="preserve" text-anchor="middle" x="770.35" y="-436.2" font-family="Times,serif" font-size="14.00">× 8</text>
</g>
<!-- n27&#45;&gt;n28 -->
<g id="edge41" class="edge">
<title>n27-&gt;n28</title>
<path fill="none" stroke="black" d="M733.87,-160C750.2,-160 768.12,-160 785.56,-160"/>
<polygon fill="black" stroke="black" points="785.42,-163.5 795.42,-160 785.42,-156.5 785.42,-163.5"/>
<text xml:space="preserve" text-anchor="middle" x="770.35" y="-164.2" font-family="Times,serif" font-size="14.00">× 8</text>
</g>
<!-- n39&#45;&gt;n40 -->
<g id="edge42" class="edge">
<title>n39-&gt;n40</title>
<path fill="none" stroke="black" d="M2417.92,-301C2426.04,-301 2434.4,-301 2442.7,-301"/>
<polygon fill="black" stroke="black" points="2442.45,-304.5 2452.45,-301 2442.45,-297.5 2442.45,-304.5"/>
</g>
</g>
</svg>